<?xml version="1.0" encoding="utf-8"?>
<!-- Generator: Adobe Illustrator 26.2.1, SVG Export Plug-In . SVG Version: 6.00 Build 0)  -->
<svg version="1.0" id="레이어_1" xmlns="http://www.w3.org/2000/svg" xmlns:xlink="http://www.w3.org/1999/xlink" x="0px"
	 y="0px" width="680.3px" height="722.8px" viewBox="0 0 680.3 722.8" enable-background="new 0 0 680.3 722.8"
	 xml:space="preserve">
<circle fill="#EAB529" cx="352.9" cy="389.3" r="262.7"/>
<g>
	<g>
		<path fill="#922C2A" d="M290.8,386.9c21.2-6.3,34.6-23.2,56.4-30c32.6-10.2,70.4-7.1,98-30.4c22-18.5,53.8-39.8,66.7-66.4
			c8.4-17.4,11.2-37.5,9.9-56.9c-2.9-44.2-29.1-93-66.6-115.1c-20.8-12.3-44-18.9-67.6-10.7c-19,6.6-36.1-6.9-55-5.4
			c-21.1,1.7-44.1,17.5-62.6,27.3c-26.6,14.1-56.5,29.9-72.6,56.6c-17.2,28.6-17.5,68.2-4.7,98.5c13.3,31.5,40.6,57.2,45.5,91
			c1.6,11.1,0.9,23.3,7.5,32.3c7.2,9.8,20.8,12.5,32.9,11.6C283,388.8,287,388,290.8,386.9z"/>
	</g>
	<g>
		<g>
			<path fill="#922C2A" d="M291.9,391.2c16.2-4.9,29-16.5,43.7-24.6c14.7-8.1,31.6-10.3,47.8-13c16.5-2.8,33.1-5.7,48.3-13.2
				c7.7-3.8,14.1-9,20.8-14.4c6.2-5.1,12.9-10.3,19.3-15.5c13.1-10.6,25.9-21.9,36.1-35.7c11.1-15.2,16.6-33.8,18.1-52.7
				c2.7-34.3-8.3-69.4-27.1-97.4c-9.2-13.8-20.4-26-33.7-35.5c-15-10.8-33-18.6-51.3-19.9c-4.6-0.3-9.1-0.2-13.7,0.4
				c-5.1,0.7-9.9,2.1-14.9,3.6c-8,2.4-16,0.9-23.8-1.1c-8.4-2.2-16.7-4.9-25.4-5c-8.7-0.1-17.4,2.4-25.5,5.7
				c-16.5,6.7-31.7,16.5-47.5,24.9c-14.6,7.8-29.3,15.8-42.4,26.2c-13.4,10.6-25.1,23.5-32.1,39.6c-7,16.2-9.8,34.2-8.8,51.9
				c1,17.9,5.8,35.1,14,50.8c7.9,15.3,18.2,29,26.7,43.9c4.1,7.2,7.9,14.6,10.5,22.5c1.4,4.1,2.4,8.3,3.1,12.6
				c0.7,4.1,0.9,8.3,1.3,12.4c1,9.2,2.9,18.5,9.4,25.3c5.8,6.1,13.8,9,21.7,10.1C274.9,394.4,283.7,393.6,291.9,391.2
				c5.3-1.5,3-10.2-2.3-8.6c-7.6,2.2-16.1,3-23.7,1.6c-6.9-1.3-13.7-4.1-17.6-10.3c-4.3-6.8-4.5-15.4-5.3-23.3
				c-0.9-8.6-2.6-16.9-5.8-25c-12.1-31.2-37.4-55.2-45.8-88.2c-4.1-16.1-4.8-33.3-1.6-49.6c3.2-16.3,10.2-31.1,21.1-43.1
				c10.9-12.1,24.4-21.2,38.2-29.2c7-4.1,14.1-7.8,21.2-11.6c7.4-3.9,14.6-8.2,22-12.2c14.3-7.9,30.5-16.7,47-15.3
				c8.1,0.7,15.9,3.7,23.9,5.5c8.6,1.9,17.2,2.4,25.7-0.4c32.7-11,68,7.6,90.3,32.3c10.6,11.7,19.1,25.3,25.6,40
				c6.2,13.9,10.7,29.7,12.2,44.6c1.9,18.3,0.3,37.6-6.8,54.7c-6.3,15.2-17.1,27-28.8,37.8c-12,10.9-24.9,20.6-37.4,30.9
				c-6.1,5-12.5,9.3-19.7,12.4c-7.3,3.2-15,5.3-22.7,7.1c-15.8,3.6-32,5.2-47.8,9.1c-8.3,2.1-16.2,5-23.6,9.2
				c-7,4-13.6,8.7-20.4,13.1c-6.4,4.1-13.1,7.8-20.3,10C284.4,384.2,286.6,392.8,291.9,391.2z"/>
		</g>
	</g>
</g>
<g>
	<path fill="#E59997" d="M286.6,350c4.2,35.1,1,70.9-9.3,104.4c34.9,9.9,71.1,14.9,107.2,15c0.3-23.6,4.2-47.1,11.7-69.4"/>
</g>
<g>
	<path fill="#F6BAB6" d="M495.5,259.3c-0.4-11.4-1.3-22.8-2.3-34c-2-20.5-3.2-41.3-13.5-59.6c-3.3-5.9-7.2-11-11.6-15.6
		c-13.3-13.6-31.9-22-57.6-29c-51.2-14-108,4.3-140.7,47.4c-21.3,28.1-29.6,57.9-29.8,93.5c-0.3,37.9,5.9,74.2,31.5,102.4
		c58,63.9,176.3,58.1,212.5-27.9c1.9-4.5,3.5-9.2,4.9-13.9C494.8,302.2,496.1,280.7,495.5,259.3z"/>
</g>
<g>
	<path fill="#F6BAB6" d="M255.1,272.4c-4.6-2.7-9.3-5.2-14.2-7.3c-4.4-1.9-8.9-3.5-13.7-3.6c-8.8-0.1-17.1,5.3-22.5,12.6
		c-13.1,17.6-9.4,45.9,7.2,59.8c13.8,11.6,34.3,12.3,49.6,3.3"/>
</g>
<g>
	<ellipse fill="#092735" cx="361.8" cy="265.5" rx="10.3" ry="10.8"/>
</g>
<g>
	<ellipse fill="#092735" cx="441.6" cy="262.4" rx="10.3" ry="10.8"/>
</g>
<g>
	<path fill="#F3A196" d="M320.6,339.5c8.6-6.6,10.7-21.4,6-31.2c-3.8-7.9-11.6-13.2-19.7-14.4c-8.2-1.1-16.6,1.7-23.1,7.2
		c-11.3,9.5-9,28.8,2.3,38c4.8,3.9,11,5.5,17.1,5.6C309.2,344.8,315.6,343.4,320.6,339.5z"/>
</g>
<g>
	<path fill="#F3A196" d="M476.4,332.2c6.8-6.4,8.4-20.7,4.6-30.3c-3.1-7.7-9.3-12.9-15.8-14.1c-6.5-1.2-13.3,1.6-18.4,6.9
		c-9,9.2-7,27.9,2.1,36.9c3.9,3.8,8.8,5.4,13.7,5.5C467.4,337.3,472.4,335.9,476.4,332.2z"/>
</g>
<g>
	<g>
		<path fill="#CD5A52" d="M220,292.8c6.6,1.6,13.1,3.2,19.7,4.9c2.2,0.5,4.7-0.7,5.2-3.1c0.5-2.3-0.7-4.9-3-5.5
			c-6.6-1.6-13.1-3.2-19.7-4.9c-2.2-0.5-4.7,0.7-5.2,3.1C216.6,289.6,217.7,292.3,220,292.8L220,292.8z"/>
	</g>
</g>
<g>
	<g>
		<path fill="#922C2A" d="M506,173.1c-2.7-4.7-5.9-9.1-9.6-12.6c-11.8-11.2-22.8-23.2-36.8-32c-4.8-3-10-5.6-15.5-7.4
			c-7.4-6.1-17.9-10.3-25.4-12.9c-32-11.2-70-9.9-102,1.1c-29.8,10.2-53.6,30.3-72.5,54.7c-3.9,5.1-39.4,76.4-48.8,65.3
			c3,3.5,1.9,8.9,6.6,12.9c4.5,3.8,9.7,4,15.1,5.1c13.4,3,27.6,4.8,41.4,4.7c22.1-0.2,44.7-0.7,65.6-7.9
			c20.9-7.2,40.3-22.1,47.1-42.9c4.5-13.9,3.2-29.2,8.5-42.8c1.6-4.1,4-8.1,7.9-10.1c3.6-1.9,8.7-0.6,11.9,1
			c14.9-33.7,52.9,4.2,64.8,21.8c8.7,12.8,16.2,27.9,30.5,35.4c7,3.7,29.6,11.7,23.7-4.1C515.2,193.1,511.4,182.4,506,173.1z"/>
	</g>
	<g>
		<g>
			<path fill="#922C2A" d="M509.7,170.9c-2.8-4.8-6.1-9.5-10.1-13.3c-3.9-3.8-7.9-7.7-11.8-11.5c-7.9-7.6-16.1-15.1-25.3-20.9
				c-5.4-3.5-11.3-6.3-17.3-8.4c0.6,0.4,1.3,0.8,1.9,1.1c-10.3-8.5-23.4-13.3-36-16.7c-13.9-3.8-28.4-5.4-42.8-5.2
				c-27.7,0.3-55.8,7.2-80,21.8c-11.3,6.9-21.8,15.4-31.2,24.9c-4.7,4.7-9.1,9.7-13.3,14.8c-1.8,2.2-3.5,4.3-4.9,6.7
				c-7.1,12.1-13.6,24.7-21,36.6c-2.2,3.5-4.4,7-6.7,10.4c-0.5,0.7-1,1.5-1.5,2.2c-0.3,0.4-0.5,0.7-0.8,1.1
				c-0.1,0.2-0.3,0.3-0.4,0.5c-0.6,0.9,0.6-0.7-0.1,0.1c-1,1.4-2.1,2.7-3.1,4c-1,1.2-2,2.3-3.1,3.4c-0.5,0.5-0.9,0.9-1.4,1.4
				c-0.2,0.2-0.4,0.4-0.6,0.6c-0.7,0.6-0.3,0.2,0,0c-0.4,0.2-0.9,0.6-1.3,0.9c-0.2,0.1-0.4,0.2-0.6,0.3c-1,0.6,0.2-0.1,0.2,0
				c0,0.1-1,0.3-1.1,0.3c-0.4,0.2,1.3-0.1,0.5-0.1c-0.1,0-0.5-0.1-0.6,0c0.3-0.2,1.3,0.3,0.6,0c-0.7-0.2,1,0.5,0.5,0.2
				c-1-0.5,0.7,0.8-0.1-0.1c-1.6-1.8-4.4-1.7-6,0c-1.7,1.8-1.5,4.5,0,6.3c-0.4-0.6,0.3,0.6,0.3,0.6c0,0,0.6,1.3,0.3,0.6
				c0.3,0.7,0.5,1.5,0.7,2.2c0.6,2.1,1.3,4.2,2.4,6.1c2.6,4.2,6.9,6.7,11.4,8c4.2,1.2,8.7,1.8,13,2.7c5,1,10,1.8,15.1,2.5
				c10.1,1.3,20.1,1.5,30.2,1.3c9.8-0.2,19.5-0.5,29.2-1.6c18.1-2,36.3-6.6,51.8-16.9c13.8-9.1,25.3-22.5,29.5-39.3
				c2.7-10.7,2.6-22,5.4-32.7c1.1-4.3,2.6-9.1,5.8-12.2c2.8-2.7,6.7-2.1,9.8-0.5c1.9,0.9,4.8,0.7,5.8-1.6c0.8-1.7,1.6-3.3,2.6-4.9
				c0.2-0.2,0.3-0.5,0.5-0.7c-0.5,0.7,0.3-0.3,0.3-0.4c0.6-0.7,1.2-1.3,1.8-2c0.2-0.2,0.4-0.3,0.5-0.5c0.8-0.8-0.7,0.4,0.2-0.2
				c0.6-0.4,1.1-0.8,1.7-1.1c0.2-0.1,1.8-0.9,0.7-0.4c0.7-0.3,1.4-0.5,2.1-0.7c0.5-0.1,1-0.2,1.6-0.3c-1.1,0.2-0.1,0,0.1,0
				c0.3,0,0.6,0,1-0.1c0.6,0,1.2,0,1.8,0c0.3,0,0.6,0,0.8,0.1c0.2,0,0.4,0,0.7,0.1c-0.6-0.1-0.6-0.1-0.1,0c1.3,0.3,2.5,0.5,3.7,0.9
				c0.7,0.2,1.4,0.5,2.1,0.7c0.3,0.1,0.6,0.2,0.9,0.3c1,0.4-0.2-0.1,0.5,0.2c5.7,2.7,11.2,6.7,15.5,10.4c4.7,4.1,9.2,8.7,13.2,13.5
				c0.9,1,1.7,2.1,2.5,3.1c0.4,0.5,0.8,1.1,1.2,1.6c0.7,0.9-0.4-0.5,0,0c0.2,0.3,0.4,0.6,0.6,0.9c2.2,3.1,4.2,6.3,6.2,9.5
				c4.8,7.4,9.7,15,16.1,21c5.1,4.8,10.8,8.2,17.1,10.6c4.8,1.8,10.2,3.5,15.4,3c3.1-0.3,6.3-1.4,8-4.3c1.7-3,1.5-6.6,0.5-9.8
				c-1.7-5.2-3.8-10.2-5.8-15.3C515,181.3,512.6,175.9,509.7,170.9c-2.8-4.9-10.2-0.4-7.4,4.5c4.9,8.5,8.3,17.8,11.7,27
				c0.3,0.8,0.6,1.7,0.9,2.5c0.1,0.4,0.4,2.3,0.3,1c0,0.5,0,1,0,1.4c-0.1-1.1,0.2-0.7,0-0.2c-0.3,0.7,0.6-1,0,0
				c-0.5,0.7,0.7-0.9,0.2-0.2c-0.1,0.1-0.2,0.2-0.3,0.3c0.7-0.8,0.6-0.5,0.2-0.2c-0.4,0.3-0.8,0.1,0.2-0.1c-0.3,0.1-0.8,0.2-1.1,0.3
				c-0.8,0.3,1,0,0.1,0c-0.4,0-0.7,0.1-1.1,0.1c-0.5,0-1,0-1.4,0c-0.3,0-2.2-0.3-1-0.1c-1.2-0.2-2.4-0.4-3.6-0.7
				c-2.4-0.6-4.8-1.4-7.2-2.4c-0.5-0.2-1.1-0.4-1.6-0.7c1.2,0.5-0.2-0.1-0.4-0.2c-1.4-0.7-2.8-1.4-4.1-2.3c-3.4-2.1-6.3-4.8-9.1-7.8
				c-5.5-6-9.7-13.1-14.2-20c-3.3-5.2-6.9-10.1-10.9-14.7c-8.3-9.5-18.2-18.7-29.7-23.8c-6-2.7-12.8-4.3-19.2-2.4
				c-7.1,2.1-12.2,8.1-15.2,14.9c1.9-0.5,3.9-1.1,5.8-1.6c-4.2-2-8.9-3.2-13.5-2.1c-4.5,1.1-8,4.9-10.3,8.8
				c-4.9,8.4-6,18.6-7.1,28.2c-1.1,8.7-2.3,17.8-6.1,25.5c-3.4,7-8.2,12.9-14,18c-12.8,11.5-29.2,17.5-45.7,20.5
				c-9.4,1.7-19,2.4-28.6,2.8c-9.8,0.4-19.6,0.7-29.4,0.1c-5.5-0.3-10.9-1-16.3-1.8c-5.3-0.9-10.6-2.1-15.9-3
				c-3.8-0.7-9-1.4-11.3-4.9c-1-1.6-1.2-2.9-1.8-4.8c-0.7-2.4-1.7-4.5-3.2-6.4c-2,2.1-4,4.2-6,6.3c5,5.7,12.1,0.4,16.1-3.8
				c6.1-6.4,11.1-14.2,15.8-21.7c8.2-13.2,15.4-27,23.3-40.3c0.4-0.7-0.3,0.4-0.4,0.5c0.3-0.7,1-1.3,1.5-1.9c1.3-1.7,2.7-3.3,4-4.9
				c2.5-2.9,5-5.8,7.7-8.6c5.3-5.6,10.9-10.8,16.8-15.6c12.1-9.6,25.6-17.4,40.1-22.4c31.1-10.9,66.2-12.4,97.7-2.1
				c6.9,2.2,13.7,4.8,20,8.5c1.7,1,3.3,2,4.8,3.1c0.7,0.5,1.4,1.2,2.2,1.7c1.1,0.7,2.5,1,3.7,1.4c3.9,1.5,7.7,3.4,11.2,5.6
				c7.1,4.4,13.5,9.7,19.6,15.4c3.2,3,6.4,6.1,9.6,9.2c3,2.9,6.2,5.8,9,8.8c2.8,3,5.1,6.4,7.2,10
				C505.2,180.3,512.6,175.8,509.7,170.9z"/>
		</g>
	</g>
</g>
<g>
	<g>
		<path fill="#092735" d="M425.6,227.5c0.5-0.3,1-0.5,1.5-0.7c-0.8,0.3,0.7-0.3,0.9-0.3c1-0.4,2.1-0.7,3.1-0.9
			c0.2,0,1.8-0.3,0.9-0.2c0.4-0.1,0.8-0.1,1.2-0.1c1.1-0.1,2.2-0.1,3.2,0c0.5,0,1.1,0.1,1.6,0.1c-0.9-0.1,0.7,0.1,0.9,0.2
			c0.9,0.2,1.8,0.4,2.7,0.7c0.5,0.2,1,0.4,1.5,0.5c0.5,0.2,0.5,0.2,0.1,0c0.2,0.1,0.5,0.2,0.7,0.3c1,0.5,1.9,1,2.8,1.6
			c1.9,1.3,4.8,0.5,5.8-1.6c1.1-2.2,0.5-4.8-1.5-6.1c-8.9-5.9-20.4-6.3-29.7-1.3c-2,1.1-2.7,4.2-1.5,6.1
			C421.1,228,423.4,228.6,425.6,227.5L425.6,227.5z"/>
	</g>
</g>
<g>
	<path fill="#FFFFFF" d="M267.9,461.6c-0.5-11.7,3.7-26.4,9.8-36.3c0.6-1,1.4-2.1,2.5-2.5c1.1-0.4,2.3-0.1,3.4,0.4
		c11.4,4.7,22.1,11.9,33,17.8c15,8.1,30.6,15.3,46.4,21.5c1.2,0.5,2.4,1,3.2,2c1.5,2.1,0.2,5.1-1.1,7.3
		c-11.1,17.7-26.6,25-46.3,27.3c-11.8,1.3-24.5,1.1-34.6-5.6C274.2,486.8,268.4,474.1,267.9,461.6z"/>
</g>
<g>
	<path fill="#FFFFFF" d="M368.8,491.9c-4.9-4.1-15-20.1-11.8-26.8c1.9-4,10.1-6.7,13.6-9.1c5.5-3.8,10.6-8,15.3-12.8
		c2.5-2.6,5.8-5.5,9.1-4.2c1.3,0.5,2.3,1.5,3.2,2.5c10.2,11.8,12.3,29.9,9.1,45C403.8,503.5,378.6,500.2,368.8,491.9z"/>
</g>
<g>
	<g>
		<path fill="#C3C2C3" d="M398.1,472.4c-3.2,15.4-9.5,29.7-18.6,42.3c2.5,0,4.9,0,7.4,0c-7.8-12.6-15.6-25.2-23.4-37.7
			c-1.5-2.4-4.7-3-6.7-0.9c-5.9,6.2-12.1,12.3-18.5,18c-3.2,2.9-6.4,5.6-9.7,8.4c-3,2.5-6,5.3-9.4,7.2c-0.7,0.4-0.9,0-1.7-0.6
			c-1.5-1.2-2.9-2.8-4.2-4.2c-2.7-2.8-5.3-5.7-7.7-8.7c-4.9-5.9-9.4-12.2-13.6-18.7c-4.8-7.7-9.1-15.7-12.9-24c-1-2.2-4-2.7-5.8-1.6
			c-2.1,1.3-2.5,3.9-1.5,6.1c7.2,15.9,16.4,30.8,27.4,44.1c2.6,3.2,5.3,6.2,8.1,9.2c2.8,2.9,5.8,6.6,9.8,7.4c5,1,8.9-2.8,12.5-5.7
			c3.6-2.9,7.2-5.8,10.7-8.9c7.8-6.8,15.3-14,22.5-21.6c-2.2-0.3-4.5-0.6-6.7-0.9c7.8,12.6,15.6,25.2,23.4,37.7c1.9,3,5.4,2.7,7.4,0
			c9.5-13.1,16.1-28.4,19.4-44.4c0.5-2.4-0.7-4.8-3-5.5C401.2,468.6,398.6,470,398.1,472.4L398.1,472.4z"/>
	</g>
</g>
<g>
	<path fill="#FFFFFF" d="M437.5,303.5c-18.4,0-33.7-15.3-34.5-34.7l0,0c-0.8-20,14-36.9,33.1-37.7c9.2-0.4,18,3,24.8,9.5
		s10.7,15.5,11.1,25.2s-2.8,18.9-9.1,26c-6.2,7.1-14.8,11.3-24,11.7C438.5,303.5,438,303.5,437.5,303.5z M411.5,268.4
		c0.6,15,12.6,26.8,27.1,26.1c6.9-0.3,13.4-3.4,18.1-8.8c4.7-5.4,7.1-12.3,6.9-19.6c-0.6-15-12.7-26.9-27.1-26.1
		C422.1,240.6,410.9,253.3,411.5,268.4L411.5,268.4z"/>
</g>
<g>
	<g>
		<path fill="#CD5A52" d="M388.2,253.7c-1.9,4.6-1.4,9.1,1,13.4c2.1,3.8,5.3,6.7,8.1,9.9c2.2,2.5,3.6,5.1,3.5,8.1
			c0,3-1.4,5.9-3.7,8.2c-3.9,4,2.1,10.3,6,6.3c6-6,8-15.2,4.2-23.1c-1.8-3.8-5-6.8-7.8-9.9c-1.7-1.9-5-5.8-4-8.4
			c0.9-2.2,0.6-4.8-1.5-6.1C392.2,251,389.1,251.5,388.2,253.7L388.2,253.7z"/>
	</g>
</g>
<g>
	<path fill="#FFFFFF" d="M354.3,307.1c-18.4,0-33.7-15.3-34.5-34.7l0,0c-0.4-9.7,2.8-18.9,9.1-26c6.2-7.1,14.8-11.3,24-11.7
		c9.2-0.4,18,3,24.8,9.5s10.7,15.5,11.1,25.2c0.8,20-14,36.9-33.1,37.7C355.3,307.1,354.8,307.1,354.3,307.1z M354.3,243.6
		c-0.4,0-0.7,0-1.1,0c-6.9,0.3-13.4,3.4-18.1,8.8c-4.7,5.4-7.1,12.3-6.9,19.6l0,0c0.6,15,12.6,26.8,27.1,26.1
		c6.9-0.3,13.4-3.4,18.1-8.8c4.7-5.4,7.1-12.3,6.9-19.6C379.7,255.1,368.2,243.6,354.3,243.6z"/>
</g>
<g>
	<g>
		<path fill="#FFFFFF" d="M411.1,265c-3.6-5.1-8.6-8.3-14.6-9c-5.7-0.7-11.4,1.8-15.5,5.9c-1.6,1.6-1.7,4.7,0,6.3
			c1.7,1.7,4.3,1.7,6,0c0.4-0.4,0.7-0.7,1.1-1c-0.3,0.3-0.3,0.2,0,0c0.2-0.1,0.4-0.3,0.6-0.4c0.5-0.3,1-0.6,1.5-0.9
			c0.1,0,0.8-0.4,0.3-0.2c-0.5,0.2,0.3-0.1,0.3-0.1c0.5-0.2,0.9-0.3,1.4-0.4c0.2-0.1,0.5-0.1,0.7-0.2c0.1,0,0.9-0.2,0.3-0.1
			c-0.5,0.1,0.2,0,0.3,0c0.2,0,0.5,0,0.7,0c0.6,0,1.1,0,1.6,0.1c0.5,0,0.3,0.1-0.1,0c0.2,0.1,0.5,0.1,0.7,0.1
			c0.5,0.1,0.9,0.2,1.4,0.4c0.2,0.1,0.5,0.2,0.7,0.2c0.4,0.1,0.3,0.2,0,0c0.4,0.2,0.9,0.4,1.3,0.7c0.4,0.3,0.8,0.5,1.2,0.8
			c0.7,0.4-0.2-0.2,0.2,0.1c0.2,0.2,0.4,0.3,0.6,0.5c0.4,0.3,0.7,0.7,1.1,1.1c0.2,0.2,0.3,0.4,0.5,0.6c0.1,0.1,0.6,0.9,0.1,0.2
			c1.3,1.9,3.7,3,5.8,1.6C411.4,269.9,412.5,267,411.1,265L411.1,265z"/>
	</g>
</g>
<g>
	<g>
		<path fill="#CD5A52" d="M350.4,317c4.2,7.8,12.3,12.7,20.6,14.1c10.1,1.6,20.1-1.1,29.6-4.5c2.2-0.8,3.6-3.1,3-5.5
			c-0.6-2.2-3.1-3.9-5.2-3.1c-7.9,2.8-16.5,5.6-24.8,4.5c-6.3-0.8-12.6-4.1-15.7-10C355.1,307.5,347.7,312,350.4,317L350.4,317z"/>
	</g>
</g>
<g>
	<g>
		<path fill="#922C2A" d="M419.5,165.3c8.6-6.5,19.5-9.3,29.8-7.3c2.3,0.4,4.6-0.6,5.2-3.1c0.6-2.2-0.7-5.1-3-5.5
			c-12.6-2.4-25.8,0.4-36.3,8.2c-1.9,1.4-2.8,3.9-1.5,6.1C414.8,165.6,417.6,166.7,419.5,165.3L419.5,165.3z"/>
	</g>
</g>
<g>
	<defs>
		<circle id="SVGID_1_" cx="351.5" cy="389.3" r="262.7"/>
	</defs>
	<clipPath id="SVGID_00000037690365804946240400000006459064084882405814_">
		<use xlink:href="#SVGID_1_"  overflow="visible"/>
	</clipPath>
	<g clip-path="url(#SVGID_00000037690365804946240400000006459064084882405814_)">
		<path fill="#FFFFFF" d="M85.4,980.6c2.4,3.5,5.3,7,8.7,10.3c24.2,24.2,58.3,36.7,90.1,44.9c56.3,14.6,115.2,18.3,172.8,11.1
			c22.9-2.9,48.7-9.8,59.4-31.3c3.8-7.6,5.1-16.3,6.5-24.8c8.1-52.6,15.1-105.6,24.4-158c6.4-36.2,21.4-68.7,28.7-105.2
			c8-39.8,14.6-80.4,11.4-120.8c-4-49.6-26-96-62.8-127.1c-52.9-44.8-134.9-52-198-30.5c-81.1,27.6-109.8,80.5-124.6,167.5
			c-15.4,90.7-24.5,182.6-27.2,274.7C73.8,925,67.9,954.9,85.4,980.6z"/>
	</g>
</g>
<g>
	<path fill="none" stroke="#D6D6D6" stroke-miterlimit="10" d="M267.9,461.6c-0.5-11.7,3.7-26.4,9.8-36.3c0.6-1,1.4-2.1,2.5-2.5
		c1.1-0.4,2.3-0.1,3.4,0.4c11.4,4.7,22.1,11.9,33,17.8c15,8.1,30.6,15.3,46.4,21.5c1.2,0.5,2.4,1,3.2,2c1.5,2.1,0.2,5.1-1.1,7.3
		c-11.1,17.7-26.6,25-46.3,27.3c-11.8,1.3-24.5,1.1-34.6-5.6C274.2,486.8,268.4,474.1,267.9,461.6z"/>
</g>
<g>
	<path fill="none" stroke="#D6D6D6" stroke-miterlimit="10" d="M368.8,491.9c-4.9-4.1-15-20.1-11.8-26.8c1.9-4,10.1-6.7,13.6-9.1
		c5.5-3.8,10.6-8,15.3-12.8c2.5-2.6,5.8-5.5,9.1-4.2c1.3,0.5,2.3,1.5,3.2,2.5c10.2,11.8,12.3,29.9,9.1,45
		C403.8,503.5,378.6,500.2,368.8,491.9z"/>
</g>
</svg>
